<svg width="24" height="24" viewBox="0 0 24 24" fill="none" xmlns="http://www.w3.org/2000/svg">
<path d="M18.0703 8.50965L9.51026 4.22965C3.76026 1.34965 1.40026 3.70965 4.28026 9.45965L5.15026 11.1996C5.40026 11.7096 5.40026 12.2996 5.15026 12.8096L4.28026 14.5396C1.40026 20.2896 3.75026 22.6496 9.51026 19.7696L18.0703 15.4896C21.9103 13.5696 21.9103 10.4296 18.0703 8.50965ZM14.8403 12.7496H9.44026C9.03026 12.7496 8.69026 12.4096 8.69026 11.9996C8.69026 11.5896 9.03026 11.2496 9.44026 11.2496H14.8403C15.2503 11.2496 15.5903 11.5896 15.5903 11.9996C15.5903 12.4096 15.2503 12.7496 14.8403 12.7496Z" fill="#C4CDE0"/>
</svg>
