<svg width="17" height="17" viewBox="0 0 17 17" fill="none" xmlns="http://www.w3.org/2000/svg">
<path d="M3.495 2.08333C3.55 2.89917 3.6875 3.69667 3.9075 4.4575L2.8075 5.5575C2.43167 4.4575 2.19333 3.29333 2.11083 2.08333H3.495ZM12.5333 13.1017C13.3125 13.3217 14.11 13.4592 14.9167 13.5142V14.88C13.7067 14.7975 12.5425 14.5592 11.4333 14.1925L12.5333 13.1017ZM4.375 0.25H1.16667C0.6625 0.25 0.25 0.6625 0.25 1.16667C0.25 9.77417 7.22583 16.75 15.8333 16.75C16.3375 16.75 16.75 16.3375 16.75 15.8333V12.6342C16.75 12.13 16.3375 11.7175 15.8333 11.7175C14.6967 11.7175 13.5875 11.5342 12.5608 11.195C12.4692 11.1583 12.3683 11.1492 12.2767 11.1492C12.0383 11.1492 11.8092 11.2408 11.6258 11.415L9.60917 13.4317C7.015 12.1025 4.88833 9.985 3.56833 7.39083L5.585 5.37417C5.84167 5.1175 5.915 4.76 5.81417 4.43917C5.475 3.4125 5.29167 2.3125 5.29167 1.16667C5.29167 0.6625 4.87917 0.25 4.375 0.25Z" fill="#36E2D7"/>
</svg>
