<svg width="28" height="31" viewBox="0 0 28 31" fill="none" xmlns="http://www.w3.org/2000/svg">
<path d="M13.2513 0.195076C13.7145 -0.0650211 14.285 -0.0650258 14.7482 0.195064L27.2516 7.21706C27.7147 7.47715 28 7.95783 28 8.47803V22.522C28 23.0422 27.7147 23.5229 27.2516 23.7829L23.8363 25.701L18.925 22.9553L22.3512 21.031C22.8143 20.771 23.0996 20.2903 23.0996 19.7701V11.2299C23.0996 10.7097 22.8143 10.2291 22.3512 9.96897L14.7482 5.6989C14.285 5.4388 13.7144 5.4388 13.2513 5.6989L5.64829 9.96897C5.18518 10.2291 4.89989 10.7097 4.89989 11.2299V26.1145L0.748405 23.783C0.28529 23.5229 0 23.0422 0 22.522V8.47802C0 7.95783 0.28529 7.47715 0.748405 7.21705L13.2513 0.195076Z" fill="url(#paint0_linear_295_15407)"/>
<path d="M13.403 25.3755L18.922 28.4609L14.7482 30.8049C14.285 31.065 13.7145 31.065 13.2513 30.8049L9.79977 28.8664V23.3626L13.2513 25.3011C13.3007 25.3289 13.3514 25.3536 13.403 25.3755Z" fill="url(#paint1_linear_295_15407)"/>
<path d="M14.7482 11.2027C14.285 10.9426 13.7144 10.9426 13.2513 11.2027L10.5482 12.7209C10.0851 12.981 9.79977 13.4616 9.79977 13.9818V17.0182C9.79977 17.5384 10.0851 18.019 10.5482 18.2791L13.2513 19.7973C13.7144 20.0574 14.285 20.0574 14.7482 19.7973L17.4513 18.2791C17.9144 18.019 18.1997 17.5384 18.1997 17.0182V13.9818C18.1997 13.4616 17.9144 12.981 17.4513 12.7209L14.7482 11.2027Z" fill="url(#paint2_linear_295_15407)"/>
<defs>
<linearGradient id="paint0_linear_295_15407" x1="9.1875" y1="18.9444" x2="38.0414" y2="14.5021" gradientUnits="userSpaceOnUse">
<stop stop-color="white"/>
<stop offset="1" stop-color="#12A886"/>
</linearGradient>
<linearGradient id="paint1_linear_295_15407" x1="9.1875" y1="18.9444" x2="38.0414" y2="14.5021" gradientUnits="userSpaceOnUse">
<stop stop-color="white"/>
<stop offset="1" stop-color="#12A886"/>
</linearGradient>
<linearGradient id="paint2_linear_295_15407" x1="9.1875" y1="18.9444" x2="38.0414" y2="14.5021" gradientUnits="userSpaceOnUse">
<stop stop-color="white"/>
<stop offset="1" stop-color="#12A886"/>
</linearGradient>
</defs>
</svg>
